<svg width="78" height="64" viewBox="0 0 78 64" fill="none" xmlns="http://www.w3.org/2000/svg">
<rect x="-1.00049" y="28.4275" width="37.5045" height="32.9158" rx="5" transform="rotate(-32 -1.00049 28.4275)" fill="#C76CFF"/>
<g filter="url(#filter0_b_55_552)">
<rect x="38.9595" y="66.4116" width="50" height="50" rx="8" transform="rotate(-124 38.9595 66.4116)" fill="#6543AD" fill-opacity="0.66"/>
<rect x="39.0944" y="65.7175" width="49" height="49" rx="7.5" transform="rotate(-124 39.0944 65.7175)" stroke="#763F84"/>
</g>
<g clip-path="url(#clip0_55_552)">
<path d="M47.6012 30.6067C47.0893 29.7875 47.3388 28.7072 48.158 28.1953L49.43 27.4004C49.5987 27.295 49.8024 27.2609 49.9962 27.3057C50.19 27.3504 50.3581 27.4703 50.4635 27.639C50.5689 27.8077 50.603 28.0114 50.5583 28.2052C50.5135 28.399 50.3936 28.5671 50.2249 28.6725L48.9528 29.4674C48.8966 29.5025 48.8566 29.5585 48.8417 29.6231C48.8268 29.6877 48.8382 29.7556 48.8733 29.8119L49.6682 31.0839C49.7413 31.201 49.8957 31.2366 50.0127 31.1635L50.4367 30.8985C51.2559 30.3866 52.3362 30.636 52.8482 31.4552L53.643 32.7273C53.889 33.1209 53.9685 33.5961 53.8641 34.0483C53.7597 34.5006 53.4799 34.8928 53.0863 35.1387L51.8142 35.9336C51.6455 36.039 51.4419 36.0731 51.2481 36.0284C51.0543 35.9836 50.8862 35.8637 50.7808 35.695C50.6753 35.5263 50.6413 35.3227 50.686 35.1289C50.7308 34.9351 50.8507 34.767 51.0194 34.6616L52.2914 33.8667C52.3477 33.8315 52.3876 33.7755 52.4025 33.7109C52.4175 33.6463 52.4061 33.5784 52.371 33.5222L51.5761 32.2501C51.5409 32.1939 51.4849 32.1539 51.4203 32.139C51.3557 32.1241 51.2878 32.1354 51.2316 32.1706L50.8076 32.4355C50.414 32.6815 49.9388 32.761 49.4865 32.6566C49.0343 32.5522 48.6421 32.2724 48.3961 31.8788L47.6012 30.6067ZM46.0113 30.4211C45.9059 30.2524 45.7378 30.1325 45.5439 30.0878C45.3501 30.043 45.1465 30.0771 44.9778 30.1825C44.8091 30.2879 44.6892 30.456 44.6444 30.6498C44.5997 30.8436 44.6338 31.0473 44.7392 31.216L47.9187 36.3043C47.9538 36.3605 47.9652 36.4284 47.9503 36.493C47.9354 36.5576 47.8954 36.6136 47.8392 36.6487L46.7791 37.3111C46.6104 37.4166 46.4905 37.5847 46.4458 37.7785C46.401 37.9723 46.4351 38.1759 46.5405 38.3446C46.6459 38.5133 46.814 38.6332 47.0078 38.678C47.2017 38.7227 47.4053 38.6886 47.574 38.5832L48.6341 37.9208C49.0277 37.6749 49.3074 37.2826 49.4118 36.8304C49.5162 36.3782 49.4367 35.903 49.1908 35.5094L46.0113 30.4211ZM35.6231 32.1956L41.7172 41.9482C42.174 42.6791 42.9024 43.1987 43.7423 43.3926C44.5821 43.5865 45.4646 43.4388 46.1956 42.9821L55.9481 36.888C56.6791 36.4312 57.1987 35.7028 57.3926 34.8629C57.5865 34.0231 57.4388 33.1406 56.9821 32.4096L50.888 22.6571C50.4312 21.9261 49.7028 21.4065 48.8629 21.2126C48.0231 21.0187 47.1406 21.1664 46.4096 21.6231L36.657 27.7172C35.9261 28.174 35.4065 28.9024 35.2126 29.7423C35.0187 30.5821 35.1664 31.4646 35.6231 32.1956ZM37.4519 28.9893L47.2045 22.8952C48.0237 22.3833 49.104 22.6327 49.6159 23.4519L55.71 33.2045C55.9559 33.5981 56.0354 34.0733 55.931 34.5255C55.8266 34.9778 55.5469 35.37 55.1533 35.6159L45.4007 41.71C45.0071 41.956 44.5319 42.0355 44.0797 41.9311C43.6274 41.8267 43.2352 41.5469 42.9893 41.1533L36.8952 31.4007C36.3833 30.5815 36.6327 29.5012 37.4519 28.9893Z" fill="white"/>
</g>
<defs>
<filter id="filter0_b_55_552" x="10.105" y="-3.89478" width="71.2012" height="71.2014" filterUnits="userSpaceOnUse" color-interpolation-filters="sRGB">
<feFlood flood-opacity="0" result="BackgroundImageFix"/>
<feGaussianBlur in="BackgroundImageFix" stdDeviation="2"/>
<feComposite in2="SourceAlpha" operator="in" result="effect1_backgroundBlur_55_552"/>
<feBlend mode="normal" in="SourceGraphic" in2="effect1_backgroundBlur_55_552" result="shape"/>
</filter>
<clipPath id="clip0_55_552">
<rect width="24" height="24" fill="white" transform="translate(29.7671 28.4851) rotate(-32)"/>
</clipPath>
</defs>
</svg>
