<svg width="78" height="64" viewBox="0 0 78 64" fill="none" xmlns="http://www.w3.org/2000/svg">
<rect x="-1.00049" y="28.4277" width="37.5045" height="32.9158" rx="5" transform="rotate(-32 -1.00049 28.4277)" fill="#C76CFF"/>
<g filter="url(#filter0_b_68_218)">
<rect x="38.9595" y="66.4119" width="50" height="50" rx="8" transform="rotate(-124 38.9595 66.4119)" fill="#6543AD" fill-opacity="0.66"/>
<rect x="39.0944" y="65.7177" width="49" height="49" rx="7.5" transform="rotate(-124 39.0944 65.7177)" stroke="#763F84"/>
</g>
<g clip-path="url(#clip0_68_218)">
<path d="M56.7975 38.1309C56.7468 38.2183 56.7612 38.2271 56.8106 38.1449C56.8273 38.1218 56.8395 38.0958 56.8468 38.0683C56.8384 38.0549 56.8384 38.0549 56.7975 38.1309ZM56.8985 37.9529C56.8809 38.0054 56.8809 38.0054 56.9118 37.9587C56.9231 37.9412 56.9314 37.922 56.9364 37.9018C56.9257 37.8846 56.9179 37.8948 56.8985 37.9529ZM56.9603 37.8311C56.9428 37.8836 56.9428 37.8836 56.9737 37.8369C56.985 37.8192 56.9931 37.7998 56.9979 37.7793C56.9879 37.7634 56.9797 37.773 56.9603 37.8311ZM57.0239 37.7091C57.0063 37.7617 57.0063 37.7617 57.0356 37.7151C57.0511 37.6877 57.0625 37.662 57.0601 37.6582C57.0502 37.6423 57.042 37.6518 57.0239 37.7091ZM57.1033 37.5348C57.063 37.6246 57.0575 37.6696 57.1004 37.5967C57.1268 37.544 57.1635 37.4415 57.1508 37.4494C57.1298 37.4767 57.1176 37.5082 57.1027 37.5352L57.1033 37.5348ZM39.2821 22.5496C39.2377 22.5817 39.1063 22.6815 38.9906 22.768C36.2616 24.8376 34.5282 28.0857 34.3116 31.5561C34.1856 33.4639 34.5223 35.374 35.2931 37.1237C35.5608 37.7347 35.654 37.9064 36.1281 38.6652C36.6019 39.4234 36.7138 39.5798 37.1456 40.0883C40.0886 43.5653 44.8138 45.0753 49.2434 43.9611C50.0392 43.7584 50.8258 43.4703 51.6737 43.0652C52.0022 42.9059 53.3334 42.074 53.6206 41.8486C54.8939 40.8407 55.8386 39.7808 56.6177 38.483C56.7376 38.2842 56.756 38.24 56.7201 38.235C55.7015 37.8462 54.6853 37.4508 53.6717 37.049L50.673 35.869L46.7499 34.124C45.4408 33.537 44.1277 32.9589 42.8107 32.39C42.8037 32.3944 43.633 33.7413 44.6514 35.3796C46.4348 38.2493 46.5076 38.3657 46.5126 38.4545C46.5278 38.5561 46.506 38.6598 46.4512 38.7467C46.4069 38.816 46.3542 38.8577 46.0534 39.0457L45.7093 39.2607L45.5847 39.2608C45.506 39.2598 45.4289 39.2381 45.3613 39.1978L45.2621 39.1351L42.7729 35.1446L40.2875 31.1516L40.3008 31.0328C40.3105 30.9588 40.3347 30.8874 40.3722 30.8228C40.4304 30.7307 40.4595 30.7036 40.8036 30.4886C41.2075 30.2363 41.2842 30.2104 41.4632 30.2605C43.0555 30.9722 44.6436 31.6932 46.2276 32.4234C48.8026 33.6019 52.3171 35.2095 54.0429 35.9971L57.1823 37.4306L57.2289 37.3281C57.6823 36.3282 57.9994 35.2719 58.1716 34.1876C58.5367 31.9192 58.2403 29.5937 57.3177 27.4895C57.05 26.8786 56.9565 26.7062 56.4827 25.948C56.0086 25.1892 55.897 25.0334 55.4652 24.525C52.5222 21.0479 47.7971 19.5379 43.367 20.6515C42.5417 20.8638 41.7397 21.1584 40.9733 21.5308C40.7682 21.6316 39.4382 22.4299 39.2836 22.5504L39.2821 22.5496ZM47.2923 26.1024C47.3541 26.0961 47.4166 26.1022 47.4761 26.1203C47.5355 26.1384 47.5908 26.1682 47.6386 26.208C47.6891 26.2507 48.3834 27.3547 49.937 29.8481L52.1652 33.4295L50.9321 32.8558L49.6947 32.2839L48.072 29.6869C47.02 28.0033 46.4372 27.0551 46.4171 27.0031C46.3817 26.8772 46.3968 26.7424 46.4591 26.6275C46.513 26.5381 46.5415 26.5158 46.8564 26.3191C47.1508 26.1351 47.2031 26.1069 47.2923 26.1024Z" fill="white"/>
</g>
<defs>
<filter id="filter0_b_68_218" x="10.105" y="-3.89453" width="71.2012" height="71.2014" filterUnits="userSpaceOnUse" color-interpolation-filters="sRGB">
<feFlood flood-opacity="0" result="BackgroundImageFix"/>
<feGaussianBlur in="BackgroundImageFix" stdDeviation="2"/>
<feComposite in2="SourceAlpha" operator="in" result="effect1_backgroundBlur_68_218"/>
<feBlend mode="normal" in="SourceGraphic" in2="effect1_backgroundBlur_68_218" result="shape"/>
</filter>
<clipPath id="clip0_68_218">
<rect width="24" height="24" fill="white" transform="translate(29.7671 28.4854) rotate(-32)"/>
</clipPath>
</defs>
</svg>
