<svg width="67" height="62" viewBox="0 0 67 62" fill="none" xmlns="http://www.w3.org/2000/svg">
<circle cx="47" cy="20" r="20" fill="#B46CC7"/>
<g filter="url(#filter0_b_55_545)">
<rect x="12.7812" y="2" width="50" height="50" rx="8" transform="rotate(16 12.7812 2)" fill="#D34EF4" fill-opacity="0.66"/>
<rect x="13.1241" y="2.61845" width="49" height="49" rx="7.5" transform="rotate(16 13.1241 2.61845)" stroke="#763F84"/>
</g>
<g clip-path="url(#clip0_55_545)">
<path d="M37.3694 35.5936C37.2872 35.4191 37.1985 35.2422 37.1034 35.0632C37.2264 34.9903 37.3466 34.9169 37.464 34.8431C39.6741 33.4438 40.9206 31.7614 40.5912 30.4419C40.2757 29.176 38.5035 28.3173 36.0375 28.1015C35.7948 28.0808 35.5515 28.0659 35.3077 28.0568C35.3069 27.8943 35.3036 27.7318 35.2976 27.5693C35.1898 24.9542 34.3552 23.0345 33.0469 22.6605C31.7931 22.301 30.1638 23.4082 28.7448 25.4368C28.6047 25.637 28.4702 25.8404 28.3411 26.0468C28.1998 25.9657 28.057 25.8872 27.9128 25.8112C25.5937 24.5997 23.5143 24.3641 22.5362 25.3109C21.5989 26.2176 21.7432 28.1827 22.7921 30.4242C22.8968 30.6458 23.0067 30.8651 23.1218 31.0822C22.8714 31.2245 22.6321 31.3712 22.4046 31.5201C20.3719 32.8508 19.2544 34.4215 19.5689 35.6826C19.8939 36.9862 21.7448 37.9125 24.2607 38.1268C24.4647 38.1439 24.669 38.1559 24.8736 38.1628C24.8732 38.4264 24.8805 38.6903 24.8957 38.9546C25.0341 41.3802 25.8356 43.1325 27.0852 43.4909C28.3765 43.8611 30.1038 42.7189 31.5466 40.6465C31.6611 40.4832 31.7724 40.3111 31.8842 40.1336C32.1131 40.2653 32.3458 40.3907 32.5822 40.5095C34.7518 41.6016 36.6708 41.7834 37.6051 40.8792C38.5707 39.9446 38.4434 37.8772 37.3694 35.5936ZM23.1796 25.9755C23.7817 25.393 25.4813 25.5851 27.4834 26.6326C27.6115 26.6993 27.7411 26.7703 27.872 26.8454C27.4006 27.7046 26.9866 28.5942 26.6329 29.5082C25.711 29.8277 24.8107 30.2065 23.9377 30.6422C23.8308 30.441 23.7289 30.2371 23.6319 30.0305C22.7318 28.1112 22.6148 26.5224 23.1796 25.9755ZM25.517 33.1011C25.1015 32.5458 24.7251 31.9916 24.3951 31.4484C24.9611 31.1645 25.5734 30.896 26.2198 30.6463C26.0831 31.0497 25.9564 31.4562 25.8396 31.866C25.7222 32.2756 25.6146 32.6873 25.517 33.1011ZM24.3405 37.2041C23.3802 37.1463 22.4388 36.9123 21.5632 36.5137C21.3181 36.4222 21.0943 36.2813 20.9058 36.0999C20.7173 35.9185 20.5679 35.7003 20.4671 35.4589C20.2751 34.6939 21.1733 33.4322 22.9117 32.2943C23.1299 32.1518 23.3522 32.0157 23.5788 31.886C24.0874 32.7222 24.6508 33.5238 25.2653 34.2855C25.0784 35.2602 24.956 36.2461 24.8991 37.2369C24.713 37.2309 24.5263 37.2202 24.3392 37.2048L24.3405 37.2041ZM34.1347 30.9527C33.8486 30.6325 33.5562 30.3183 33.2576 30.0103C32.9631 29.7065 32.6626 29.4088 32.3563 29.1174C33.0204 29.037 33.688 28.9897 34.3568 28.9754C34.3161 29.6378 34.2419 30.2977 34.1347 30.9527ZM29.5046 25.9668C30.7193 24.2302 32.0377 23.3347 32.7937 23.5515C33.599 23.7813 34.2805 25.3505 34.3737 27.6076C34.3796 27.755 34.3824 27.9023 34.3823 28.0495C33.4043 28.0703 32.4288 28.1558 31.4621 28.3054C30.7258 27.6622 29.9469 27.0695 29.1308 26.5313C29.2509 26.3403 29.3755 26.1522 29.5046 25.9668ZM28.6628 27.3302C29.219 27.698 29.7563 28.0935 30.2726 28.5154C29.4344 28.6823 28.6059 28.8884 27.7873 29.1337C28.0611 28.4932 28.355 27.8889 28.6628 27.3302ZM26.0453 35.2125C26.3269 35.5329 26.6161 35.8461 26.913 36.1521C27.2157 36.4643 27.5253 36.7694 27.8418 37.0676C27.1736 37.1592 26.5011 37.2166 25.827 37.2393C25.8665 36.5609 25.9392 35.8848 26.045 35.2135L26.0453 35.2125ZM30.7876 40.1178C30.2576 40.9204 29.5845 41.6187 28.8018 42.1776C28.6003 42.3444 28.3667 42.4681 28.1155 42.5411C27.8643 42.6141 27.6008 42.6347 27.3413 42.6018C26.5821 42.3841 25.9387 40.9769 25.8213 38.9022C25.8074 38.6571 25.8004 38.4116 25.8003 38.1659C26.7846 38.1336 27.7656 38.0346 28.7365 37.8696C29.4834 38.514 30.2718 39.1086 31.0965 39.6496C30.997 39.8082 30.894 39.9642 30.7876 40.1178ZM31.56 38.8471C30.9935 38.4744 30.4455 38.0743 29.918 37.6483C30.3245 37.5642 30.7365 37.4701 31.1541 37.366C31.5829 37.259 32.0036 37.1441 32.416 37.0212C32.1621 37.6441 31.8763 38.2535 31.56 38.8471ZM33.4417 34.0414C33.2604 34.6739 33.0594 35.2999 32.8389 35.9197C32.2258 36.1203 31.5869 36.3045 30.9304 36.4678C30.2752 36.6305 29.6347 36.7691 29.0117 36.8824C28.5164 36.4428 28.0384 35.9849 27.5776 35.5087C27.1198 35.0356 26.6802 34.5455 26.2591 34.0386C26.3917 33.3929 26.5487 32.7534 26.7303 32.1203C26.9116 31.4878 27.1165 30.8625 27.3449 30.2443C28.5966 29.8297 29.8779 29.5104 31.1778 29.2889C31.6653 29.7269 32.1371 30.1819 32.593 30.6537C33.0511 31.1262 33.4937 31.6134 33.9208 32.1152C33.784 32.7627 33.6243 33.4048 33.4417 34.0414ZM35.9581 29.0232C38.071 29.2087 39.5039 29.9024 39.6941 30.6659C39.8971 31.4791 38.8788 32.8528 36.9692 34.0611C36.8637 34.1278 36.7553 34.194 36.644 34.2598C36.1229 33.4221 35.5453 32.6209 34.9154 31.8617C35.1026 30.9112 35.2259 29.9492 35.2846 28.9822C35.515 28.9912 35.7395 29.0048 35.9581 29.0232ZM34.6626 33.0301C35.0806 33.5674 35.4703 34.1261 35.8304 34.7038C35.2191 35.0106 34.5923 35.2853 33.9524 35.5267C34.0866 35.1189 34.2128 34.7088 34.3311 34.2964C34.4513 33.8771 34.5618 33.455 34.6626 33.0301ZM36.963 40.2139C36.3956 40.7623 34.8549 40.6169 32.9983 39.6833C32.7855 39.5765 32.5695 39.4597 32.3504 39.333C32.8116 38.4687 33.2138 37.5742 33.5543 36.6556C34.492 36.3362 35.4067 35.9527 36.2918 35.5078C36.3782 35.6701 36.4586 35.8299 36.533 35.9872C36.9637 36.8473 37.2325 37.7793 37.3257 38.7367C37.3695 38.9946 37.3599 39.2588 37.2975 39.5129C37.2351 39.7669 37.1213 40.0055 36.963 40.2139ZM29.613 31.1854C29.2417 31.278 28.9062 31.4786 28.6489 31.7619C28.3916 32.0451 28.2241 32.3983 28.1676 32.7767C28.111 33.1552 28.1679 33.5419 28.3311 33.888C28.4944 34.2341 28.7565 34.524 29.0845 34.7211C29.4125 34.9182 29.7916 35.0137 30.1738 34.9954C30.556 34.977 30.9242 34.8458 31.2318 34.6182C31.5394 34.3907 31.7727 34.077 31.9021 33.7169C32.0314 33.3568 32.0511 32.9664 31.9586 32.5951C31.8972 32.3485 31.7878 32.1164 31.6367 31.9121C31.4855 31.7078 31.2956 31.5352 31.0778 31.4043C30.86 31.2734 30.6185 31.1867 30.3672 31.1492C30.1158 31.1116 29.8595 31.1239 29.613 31.1854Z" fill="white"/>
</g>
<defs>
<filter id="filter0_b_55_545" x="-3.10742" y="-0.106934" width="66.0586" height="66.0588" filterUnits="userSpaceOnUse" color-interpolation-filters="sRGB">
<feFlood flood-opacity="0" result="BackgroundImageFix"/>
<feGaussianBlur in="BackgroundImageFix" stdDeviation="2"/>
<feComposite in2="SourceAlpha" operator="in" result="effect1_backgroundBlur_55_545"/>
<feBlend mode="normal" in="SourceGraphic" in2="effect1_backgroundBlur_55_545" result="shape"/>
</filter>
<clipPath id="clip0_55_545">
<rect width="26" height="26" fill="white" transform="translate(21.1665 17) rotate(16)"/>
</clipPath>
</defs>
</svg>
